#define 3d_arrow_left_black_width 16
#define 3d_arrow_left_black_height 16
#define 3d_arrow_left_black_x_hot 1
#define 3d_arrow_left_black_y_hot 1
static unsigned char 3d_arrow_left_black_bits[] = {
   0x00, 0x00, 0x06, 0x00, 0x1e, 0x00, 0x6c, 0x00, 0xbc, 0x01, 0x78, 0x07,
   0xf8, 0x1a, 0xf0, 0x75, 0xf0, 0x6b, 0xe0, 0x37, 0xe0, 0x1f, 0xc0, 0x2f,
   0xc0, 0x5f, 0x80, 0x7b, 0x80, 0x71, 0x00, 0x00};
